Exact Audio Copy V0.99 prebeta 4 from 23. January 2008

EAC 抓取日志文件从21. 十一月 2008, 18:16

未知艺术家 / 未知标题

使用驱动器  ：PIONEER DVD-ROM DVD-129P   Adapter: 1  ID: 0

读取模式     : 保护
使用精确流   : 是
废除音频缓冲 : 否
使用 C2 指针 : 否

组合读/写偏移校正              : 0
读取 Lead-In 和 Lead-Out       : 否
用静音填充抓取中丢失偏移的采样 : 是
去除首尾静音块                 : 否
在 CRC 计算中使用了空样本      : 否
已用接口                       : Win NT 及 2000 本地 Win32 接口

所用输出格式 : 内部 WAV 函数
样本格式     : 44.100 Hz;16 Bit;立体声


被抓轨 CD 的 TOC

     音轨 |   开始   |   长度   | 起始扇区 | 结尾扇区 
    --------------------------------------------------
       1  |  0:00.00 |  4:41.25 |       0  |   21099  
       2  |  4:41.25 |  3:22.00 |   21100  |   36249  
       3  |  8:03.25 |  4:37.50 |   36250  |   57074  
       4  | 12:41.00 |  3:14.37 |   57075  |   71661  
       5  | 15:55.37 |  1:49.00 |   71662  |   79836  
       6  | 17:44.37 |  4:15.13 |   79837  |   98974  
       7  | 21:59.50 |  3:18.50 |   98975  |  113874  
       8  | 25:18.25 |  2:43.12 |  113875  |  126111  
       9  | 28:01.37 |  3:49.50 |  126112  |  143336  
      10  | 31:51.12 |  2:24.38 |  143337  |  154174  
      11  | 34:15.50 |  3:30.37 |  154175  |  169961  
      12  | 37:46.12 |  6:23.63 |  169962  |  198749  
      13  | 44:10.00 |  3:40.12 |  198750  |  215261  
      14  | 47:50.12 |  4:53.38 |  215262  |  237274  


范围状态及错误

已选择范围

     文件名 H:\新建文件夹 (4)\未知艺术家 - 未知标题.wav

     峰值电平 99.4 %
     范围质量 100.0 %
     复制 CRC 8EE14FBB
     复制成功

没有错误发生

状态报告结尾
